# xmcd CD database file
#
# Track frame offsets:
#	150
#	23842
#	63947
#	85497
#	110561
#	125272
#	147842
#	188090
#	211044
#
# Disc length: 3348 seconds
#
# Revision: 0
# Processed by: cddbd v1.5.2PL0 Copyright (c) Steve Scherf et al.
# Submitted via: CDex 1.70beta2
#
DISCID=760d1209
DTITLE=Matthias Schriefl - shreefounk plus strings
DYEAR=2006
DGENRE=Jazz
TTITLE0=Köln Kuddelmuddel
TTITLE1=Michael's Flat
TTITLE2=Hannas Haar
TTITLE3=Ozonloch, I hob no koans gseng!
TTITLE4=Danke
TTITLE5=Aua!
TTITLE6=Vertrauen
TTITLE7=Liebe
TTITLE8=Das was hinten rauskommt
EXTD=YEAR: 2006
EXTT0=
EXTT1=
EXTT2=
EXTT3=
EXTT4=
EXTT5=
EXTT6=
EXTT7=
EXTT8=
PLAYORDER=
